# Blender v2.77 (sub 0) OBJ File: 'Fire_RangedBarracks_BlendMaster.blend'
# www.blender.org
mtllib Fire_RangedBarracks_PoolModel.mtl
o Circle.001
v 0.929952 0.330155 -0.979336
v 0.554550 0.089417 -0.979336
v 0.699980 -0.003535 -0.979336
v 1.164632 0.294437 -0.979336
v -0.658816 0.089353 -0.979336
v -1.034760 0.329741 -0.979336
v -1.268316 0.294437 -0.979336
v -0.803664 -0.003535 -0.979336
v -0.658235 0.867770 -0.979336
v -0.051734 0.960137 -0.979336
v -0.051842 1.074538 -0.979336
v -0.803664 0.960722 -0.979336
v 0.931076 0.627446 -0.979336
v 1.164632 0.662751 -0.979336
v -0.051950 -0.002949 -0.979336
v -0.051842 -0.117351 -0.979336
v -1.033636 0.627032 -0.979336
v -1.268316 0.662750 -0.979336
v 0.555131 0.867834 -0.979336
v 0.699979 0.960723 -0.979336
v -0.044935 0.664876 -0.979336
v 0.149630 0.607794 -0.979336
v 0.369320 0.748677 -0.979336
v -0.050979 0.815758 -0.979336
v -0.429957 0.417969 -0.979336
v -0.357993 0.512723 -0.979336
v -0.730818 0.579854 -0.979336
v -0.739813 0.374022 -0.979336
v 0.112430 0.353480 -0.979336
v -0.058749 0.292311 -0.979336
v -0.052706 0.141429 -0.979336
v 0.364671 0.209021 -0.979336
v 0.326273 0.539219 -0.979336
v 0.636129 0.583166 -0.979336
v -0.216115 0.603707 -0.979336
v -0.468355 0.748166 -0.979336
v -0.253314 0.349394 -0.979336
v -0.473005 0.208510 -0.979336
v 0.254309 0.444464 -0.979336
v 0.627134 0.377333 -0.979336
v -0.111629 0.440254 -0.979336
v 0.007945 0.516934 -0.979336
vt 0.634694 0.060989
vt 0.365307 0.060989
vt 0.345522 0.000098
vt 0.654478 0.000098
vt 0.064123 0.475533
vt 0.147368 0.731735
vt 0.095571 0.769368
vt 0.000098 0.475533
vt 0.634694 0.890077
vt 0.852632 0.731735
vt 0.904430 0.769368
vt 0.654478 0.950968
vt 0.852632 0.219331
vt 0.904429 0.181698
vt 0.147368 0.219331
vt 0.095570 0.181698
vt 0.365307 0.890077
vt 0.345522 0.950968
vt 0.935877 0.475533
vt 0.999903 0.475533
vt 0.568198 0.525082
vt 0.584297 0.475533
vt 0.797342 0.475533
vt 0.740555 0.650306
vt 0.431802 0.525082
vt 0.473951 0.555704
vt 0.408116 0.758322
vt 0.259445 0.650306
vt 0.473951 0.395362
vt 0.431802 0.425984
vt 0.259445 0.300760
vt 0.408116 0.192744
vt 0.568198 0.425984
vt 0.740555 0.300759
vt 0.526049 0.555704
vt 0.591884 0.758322
vt 0.415703 0.475533
vt 0.202658 0.475533
vt 0.526049 0.395362
vt 0.591884 0.192744
vt 0.473951 0.475533
vt 0.526049 0.475533
vn -0.000000 -0.000000 1.000000
usemtl None
s 1
f 1/1/1 2/2/1 3/3/1 4/4/1
f 5/5/1 6/6/1 7/7/1 8/8/1
f 9/9/1 10/10/1 11/11/1 12/12/1
f 13/13/1 1/1/1 4/4/1 14/14/1
f 15/15/1 5/5/1 8/8/1 16/16/1
f 17/17/1 9/9/1 12/12/1 18/18/1
f 19/19/1 13/13/1 14/14/1 20/20/1
f 2/2/1 15/15/1 16/16/1 3/3/1
f 6/6/1 17/17/1 18/18/1 7/7/1
f 10/10/1 19/19/1 20/20/1 11/11/1
f 21/21/1 22/22/1 23/23/1 24/24/1
f 24/24/1 23/23/1 19/19/1 10/10/1
f 25/25/1 26/26/1 27/27/1 28/28/1
f 28/28/1 27/27/1 17/17/1 6/6/1
f 29/29/1 30/30/1 31/31/1 32/32/1
f 32/32/1 31/31/1 15/15/1 2/2/1
f 22/22/1 33/33/1 34/34/1 23/23/1
f 23/23/1 34/34/1 13/13/1 19/19/1
f 26/26/1 35/35/1 36/36/1 27/27/1
f 27/27/1 36/36/1 9/9/1 17/17/1
f 30/30/1 37/37/1 38/38/1 31/31/1
f 31/31/1 38/38/1 5/5/1 15/15/1
f 33/33/1 39/39/1 40/40/1 34/34/1
f 34/34/1 40/40/1 1/1/1 13/13/1
f 35/35/1 21/21/1 24/24/1 36/36/1
f 36/36/1 24/24/1 10/10/1 9/9/1
f 37/37/1 25/25/1 28/28/1 38/38/1
f 38/38/1 28/28/1 6/6/1 5/5/1
f 39/39/1 29/29/1 32/32/1 40/40/1
f 40/40/1 32/32/1 2/2/1 1/1/1
f 41/41/1 29/29/1 39/39/1 42/42/1
f 26/26/1 41/41/1 42/42/1 35/35/1
f 30/30/1 29/29/1 41/41/1 37/37/1
f 26/26/1 25/25/1 37/37/1 41/41/1
f 39/39/1 33/33/1 22/22/1 42/42/1
f 35/35/1 42/42/1 22/22/1 21/21/1
